<mxfile host="app.diagrams.net" agent="Mozilla/5.0 (Windows NT 10.0; Win64; x64) AppleWebKit/537.36 (KHTML, like Gecko) Chrome/136.0.0.0 Safari/537.36" version="24.8.1">
  <diagram name="Page-1" id="TJ6uyYOCQDv61BvAuxeT">
    <mxGraphModel dx="1750" dy="883" grid="1" gridSize="10" guides="1" tooltips="1" connect="1" arrows="1" fold="1" page="1" pageScale="1" pageWidth="850" pageHeight="1100" math="0" shadow="0">
      <root>
        <mxCell id="0" />
        <mxCell id="1" parent="0" />
        <mxCell id="mrg4C_aMYKjTPVIA3Uac-2" style="edgeStyle=orthogonalEdgeStyle;rounded=0;orthogonalLoop=1;jettySize=auto;html=1;" edge="1" parent="1" source="mrg4C_aMYKjTPVIA3Uac-40" target="mrg4C_aMYKjTPVIA3Uac-3">
          <mxGeometry relative="1" as="geometry">
            <mxPoint x="400" y="150" as="targetPoint" />
            <Array as="points">
              <mxPoint x="400" y="60" />
            </Array>
          </mxGeometry>
        </mxCell>
        <mxCell id="mrg4C_aMYKjTPVIA3Uac-1" value="&lt;font style=&quot;font-size: 24px;&quot;&gt;User&lt;/font&gt;" style="ellipse;whiteSpace=wrap;html=1;" vertex="1" parent="1">
          <mxGeometry x="20" y="20" width="120" height="80" as="geometry" />
        </mxCell>
        <mxCell id="mrg4C_aMYKjTPVIA3Uac-4" style="edgeStyle=orthogonalEdgeStyle;rounded=0;orthogonalLoop=1;jettySize=auto;html=1;" edge="1" parent="1" source="mrg4C_aMYKjTPVIA3Uac-3" target="mrg4C_aMYKjTPVIA3Uac-6">
          <mxGeometry relative="1" as="geometry">
            <mxPoint x="400" y="240" as="targetPoint" />
          </mxGeometry>
        </mxCell>
        <mxCell id="mrg4C_aMYKjTPVIA3Uac-3" value="&lt;font style=&quot;font-size: 17px;&quot;&gt;Send Message&lt;/font&gt;" style="rounded=1;whiteSpace=wrap;html=1;" vertex="1" parent="1">
          <mxGeometry x="340" y="120" width="120" height="60" as="geometry" />
        </mxCell>
        <mxCell id="mrg4C_aMYKjTPVIA3Uac-7" value="&lt;font style=&quot;font-size: 21px;&quot;&gt;False&lt;/font&gt;" style="edgeStyle=orthogonalEdgeStyle;rounded=0;orthogonalLoop=1;jettySize=auto;html=1;" edge="1" parent="1" source="mrg4C_aMYKjTPVIA3Uac-6" target="mrg4C_aMYKjTPVIA3Uac-8">
          <mxGeometry relative="1" as="geometry">
            <mxPoint x="80" y="360" as="targetPoint" />
          </mxGeometry>
        </mxCell>
        <mxCell id="mrg4C_aMYKjTPVIA3Uac-10" value="" style="edgeStyle=orthogonalEdgeStyle;rounded=0;orthogonalLoop=1;jettySize=auto;html=1;" edge="1" parent="1" source="mrg4C_aMYKjTPVIA3Uac-6" target="mrg4C_aMYKjTPVIA3Uac-9">
          <mxGeometry relative="1" as="geometry" />
        </mxCell>
        <mxCell id="mrg4C_aMYKjTPVIA3Uac-6" value="&lt;font style=&quot;font-size: 20px;&quot;&gt;Is valid User&lt;/font&gt;" style="rounded=1;whiteSpace=wrap;html=1;" vertex="1" parent="1">
          <mxGeometry x="340" y="210" width="120" height="60" as="geometry" />
        </mxCell>
        <mxCell id="mrg4C_aMYKjTPVIA3Uac-8" value="&lt;font style=&quot;font-size: 18px;&quot;&gt;Delete Message&lt;/font&gt;" style="rounded=1;whiteSpace=wrap;html=1;" vertex="1" parent="1">
          <mxGeometry x="20" y="330" width="120" height="60" as="geometry" />
        </mxCell>
        <mxCell id="mrg4C_aMYKjTPVIA3Uac-12" value="" style="edgeStyle=orthogonalEdgeStyle;rounded=0;orthogonalLoop=1;jettySize=auto;html=1;" edge="1" parent="1" source="mrg4C_aMYKjTPVIA3Uac-9" target="mrg4C_aMYKjTPVIA3Uac-11">
          <mxGeometry relative="1" as="geometry" />
        </mxCell>
        <mxCell id="mrg4C_aMYKjTPVIA3Uac-9" value="&lt;font style=&quot;font-size: 17px;&quot;&gt;Process Message&amp;nbsp;&lt;/font&gt;" style="whiteSpace=wrap;html=1;rounded=1;" vertex="1" parent="1">
          <mxGeometry x="570" y="330" width="120" height="60" as="geometry" />
        </mxCell>
        <mxCell id="mrg4C_aMYKjTPVIA3Uac-13" value="&lt;font style=&quot;font-size: 22px;&quot;&gt;False&lt;/font&gt;" style="edgeStyle=orthogonalEdgeStyle;rounded=0;orthogonalLoop=1;jettySize=auto;html=1;entryX=1;entryY=0.5;entryDx=0;entryDy=0;" edge="1" parent="1" source="mrg4C_aMYKjTPVIA3Uac-11" target="mrg4C_aMYKjTPVIA3Uac-8">
          <mxGeometry relative="1" as="geometry" />
        </mxCell>
        <mxCell id="mrg4C_aMYKjTPVIA3Uac-14" value="&lt;font style=&quot;font-size: 19px;&quot;&gt;True&lt;/font&gt;" style="edgeStyle=orthogonalEdgeStyle;rounded=0;orthogonalLoop=1;jettySize=auto;html=1;" edge="1" parent="1" source="mrg4C_aMYKjTPVIA3Uac-11" target="mrg4C_aMYKjTPVIA3Uac-15">
          <mxGeometry relative="1" as="geometry">
            <mxPoint x="400" y="650" as="targetPoint" />
          </mxGeometry>
        </mxCell>
        <mxCell id="mrg4C_aMYKjTPVIA3Uac-11" value="&lt;font style=&quot;font-size: 17px;&quot;&gt;Is Message Valid?&lt;/font&gt;" style="whiteSpace=wrap;html=1;rounded=1;" vertex="1" parent="1">
          <mxGeometry x="340" y="470" width="120" height="60" as="geometry" />
        </mxCell>
        <mxCell id="mrg4C_aMYKjTPVIA3Uac-25" style="edgeStyle=orthogonalEdgeStyle;rounded=0;orthogonalLoop=1;jettySize=auto;html=1;entryX=0.5;entryY=0;entryDx=0;entryDy=0;" edge="1" parent="1" source="mrg4C_aMYKjTPVIA3Uac-15" target="mrg4C_aMYKjTPVIA3Uac-23">
          <mxGeometry relative="1" as="geometry" />
        </mxCell>
        <mxCell id="mrg4C_aMYKjTPVIA3Uac-15" value="&lt;font style=&quot;font-size: 20px;&quot;&gt;Set Order&lt;/font&gt;" style="rounded=1;whiteSpace=wrap;html=1;" vertex="1" parent="1">
          <mxGeometry x="340" y="620" width="120" height="60" as="geometry" />
        </mxCell>
        <mxCell id="mrg4C_aMYKjTPVIA3Uac-18" value="" style="edgeStyle=orthogonalEdgeStyle;rounded=0;orthogonalLoop=1;jettySize=auto;html=1;" edge="1" parent="1" source="mrg4C_aMYKjTPVIA3Uac-16" target="mrg4C_aMYKjTPVIA3Uac-19">
          <mxGeometry relative="1" as="geometry">
            <mxPoint x="1220" y="60" as="targetPoint" />
          </mxGeometry>
        </mxCell>
        <mxCell id="mrg4C_aMYKjTPVIA3Uac-16" value="10 Second Loop" style="ellipse;whiteSpace=wrap;html=1;" vertex="1" parent="1">
          <mxGeometry x="960" y="20" width="120" height="80" as="geometry" />
        </mxCell>
        <mxCell id="mrg4C_aMYKjTPVIA3Uac-21" value="" style="edgeStyle=orthogonalEdgeStyle;rounded=0;orthogonalLoop=1;jettySize=auto;html=1;" edge="1" parent="1" source="mrg4C_aMYKjTPVIA3Uac-19" target="mrg4C_aMYKjTPVIA3Uac-22">
          <mxGeometry relative="1" as="geometry">
            <mxPoint x="1360" y="60" as="targetPoint" />
          </mxGeometry>
        </mxCell>
        <mxCell id="mrg4C_aMYKjTPVIA3Uac-19" value="&lt;font style=&quot;font-size: 16px;&quot;&gt;Update Current Time&lt;/font&gt;" style="ellipse;whiteSpace=wrap;html=1;" vertex="1" parent="1">
          <mxGeometry x="1180" y="20" width="120" height="80" as="geometry" />
        </mxCell>
        <mxCell id="mrg4C_aMYKjTPVIA3Uac-26" style="edgeStyle=orthogonalEdgeStyle;rounded=0;orthogonalLoop=1;jettySize=auto;html=1;" edge="1" parent="1" source="mrg4C_aMYKjTPVIA3Uac-22" target="mrg4C_aMYKjTPVIA3Uac-27">
          <mxGeometry relative="1" as="geometry">
            <mxPoint x="1460" y="200" as="targetPoint" />
          </mxGeometry>
        </mxCell>
        <mxCell id="mrg4C_aMYKjTPVIA3Uac-22" value="&lt;font style=&quot;font-size: 16px;&quot;&gt;Update Current Price&lt;/font&gt;" style="ellipse;whiteSpace=wrap;html=1;" vertex="1" parent="1">
          <mxGeometry x="1400" y="20" width="120" height="80" as="geometry" />
        </mxCell>
        <mxCell id="mrg4C_aMYKjTPVIA3Uac-23" value="Make Positions" style="ellipse;whiteSpace=wrap;html=1;" vertex="1" parent="1">
          <mxGeometry x="340" y="790" width="120" height="80" as="geometry" />
        </mxCell>
        <mxCell id="mrg4C_aMYKjTPVIA3Uac-28" style="edgeStyle=orthogonalEdgeStyle;rounded=0;orthogonalLoop=1;jettySize=auto;html=1;" edge="1" parent="1" source="mrg4C_aMYKjTPVIA3Uac-27" target="mrg4C_aMYKjTPVIA3Uac-29">
          <mxGeometry relative="1" as="geometry">
            <mxPoint x="1290" y="200" as="targetPoint" />
          </mxGeometry>
        </mxCell>
        <mxCell id="mrg4C_aMYKjTPVIA3Uac-27" value="&lt;font style=&quot;font-size: 17px;&quot;&gt;Update User Info&lt;/font&gt;" style="ellipse;whiteSpace=wrap;html=1;" vertex="1" parent="1">
          <mxGeometry x="1400" y="300" width="120" height="80" as="geometry" />
        </mxCell>
        <mxCell id="mrg4C_aMYKjTPVIA3Uac-31" value="&lt;font style=&quot;font-size: 18px;&quot;&gt;True&lt;/font&gt;" style="edgeStyle=orthogonalEdgeStyle;rounded=0;orthogonalLoop=1;jettySize=auto;html=1;entryX=0.5;entryY=1;entryDx=0;entryDy=0;" edge="1" parent="1" source="mrg4C_aMYKjTPVIA3Uac-29" target="mrg4C_aMYKjTPVIA3Uac-27">
          <mxGeometry relative="1" as="geometry">
            <mxPoint x="1240" y="510" as="targetPoint" />
            <Array as="points">
              <mxPoint x="1240" y="450" />
              <mxPoint x="1460" y="450" />
            </Array>
          </mxGeometry>
        </mxCell>
        <mxCell id="mrg4C_aMYKjTPVIA3Uac-32" value="&lt;font style=&quot;font-size: 17px;&quot;&gt;False&lt;/font&gt;" style="edgeStyle=orthogonalEdgeStyle;rounded=0;orthogonalLoop=1;jettySize=auto;html=1;" edge="1" parent="1" source="mrg4C_aMYKjTPVIA3Uac-29" target="mrg4C_aMYKjTPVIA3Uac-33">
          <mxGeometry relative="1" as="geometry">
            <mxPoint x="1070" y="340" as="targetPoint" />
          </mxGeometry>
        </mxCell>
        <mxCell id="mrg4C_aMYKjTPVIA3Uac-29" value="&lt;font style=&quot;font-size: 16px;&quot;&gt;Check Call Margin&lt;/font&gt;" style="ellipse;whiteSpace=wrap;html=1;" vertex="1" parent="1">
          <mxGeometry x="1180" y="300" width="120" height="80" as="geometry" />
        </mxCell>
        <mxCell id="mrg4C_aMYKjTPVIA3Uac-33" value="" style="ellipse;whiteSpace=wrap;html=1;" vertex="1" parent="1">
          <mxGeometry x="960" y="300" width="120" height="80" as="geometry" />
        </mxCell>
        <mxCell id="mrg4C_aMYKjTPVIA3Uac-39" value="&lt;font style=&quot;font-size: 18px;&quot;&gt;Task&lt;/font&gt;" style="edgeStyle=orthogonalEdgeStyle;rounded=0;orthogonalLoop=1;jettySize=auto;html=1;" edge="1" parent="1" source="mrg4C_aMYKjTPVIA3Uac-37" target="mrg4C_aMYKjTPVIA3Uac-38">
          <mxGeometry relative="1" as="geometry" />
        </mxCell>
        <mxCell id="mrg4C_aMYKjTPVIA3Uac-42" style="edgeStyle=orthogonalEdgeStyle;rounded=0;orthogonalLoop=1;jettySize=auto;html=1;entryX=0.5;entryY=1;entryDx=0;entryDy=0;" edge="1" parent="1" source="mrg4C_aMYKjTPVIA3Uac-37" target="mrg4C_aMYKjTPVIA3Uac-16">
          <mxGeometry relative="1" as="geometry" />
        </mxCell>
        <mxCell id="mrg4C_aMYKjTPVIA3Uac-37" value="&lt;font style=&quot;font-size: 21px;&quot;&gt;12:30&lt;/font&gt;" style="ellipse;whiteSpace=wrap;html=1;" vertex="1" parent="1">
          <mxGeometry x="960" y="300" width="120" height="80" as="geometry" />
        </mxCell>
        <mxCell id="mrg4C_aMYKjTPVIA3Uac-38" value="&lt;font style=&quot;font-size: 18px;&quot;&gt;Send Message&lt;/font&gt;" style="whiteSpace=wrap;html=1;" vertex="1" parent="1">
          <mxGeometry x="960" y="470" width="120" height="60" as="geometry" />
        </mxCell>
        <mxCell id="mrg4C_aMYKjTPVIA3Uac-41" value="" style="edgeStyle=orthogonalEdgeStyle;rounded=0;orthogonalLoop=1;jettySize=auto;html=1;" edge="1" parent="1" source="mrg4C_aMYKjTPVIA3Uac-1" target="mrg4C_aMYKjTPVIA3Uac-40">
          <mxGeometry relative="1" as="geometry">
            <mxPoint x="400" y="120" as="targetPoint" />
            <mxPoint x="140" y="60" as="sourcePoint" />
          </mxGeometry>
        </mxCell>
        <mxCell id="mrg4C_aMYKjTPVIA3Uac-40" value="&lt;font style=&quot;font-size: 17px;&quot;&gt;Check Time&lt;/font&gt;" style="shape=parallelogram;perimeter=parallelogramPerimeter;whiteSpace=wrap;html=1;fixedSize=1;" vertex="1" parent="1">
          <mxGeometry x="220" y="30" width="120" height="60" as="geometry" />
        </mxCell>
        <mxCell id="mrg4C_aMYKjTPVIA3Uac-44" value="&lt;font style=&quot;font-size: 24px;&quot;&gt;Pay&lt;/font&gt;" style="edgeStyle=orthogonalEdgeStyle;rounded=0;orthogonalLoop=1;jettySize=auto;html=1;exitX=1;exitY=1;exitDx=0;exitDy=0;" edge="1" parent="1" source="mrg4C_aMYKjTPVIA3Uac-43">
          <mxGeometry relative="1" as="geometry">
            <mxPoint x="1570" y="850" as="targetPoint" />
          </mxGeometry>
        </mxCell>
        <mxCell id="mrg4C_aMYKjTPVIA3Uac-43" value="&lt;font style=&quot;font-size: 19px;&quot;&gt;Admin Panel&lt;/font&gt;" style="ellipse;whiteSpace=wrap;html=1;" vertex="1" parent="1">
          <mxGeometry x="1360" y="630" width="120" height="80" as="geometry" />
        </mxCell>
        <mxCell id="mrg4C_aMYKjTPVIA3Uac-45" value="&lt;font style=&quot;font-size: 16px;&quot;&gt;Close the position acording to the price entered by admin&lt;/font&gt;" style="ellipse;whiteSpace=wrap;html=1;" vertex="1" parent="1">
          <mxGeometry x="1510" y="850" width="120" height="80" as="geometry" />
        </mxCell>
        <mxCell id="mrg4C_aMYKjTPVIA3Uac-46" value="" style="shape=flexArrow;endArrow=classic;html=1;rounded=0;exitX=0;exitY=1;exitDx=0;exitDy=0;" edge="1" parent="1" source="mrg4C_aMYKjTPVIA3Uac-29" target="mrg4C_aMYKjTPVIA3Uac-47">
          <mxGeometry width="50" height="50" relative="1" as="geometry">
            <mxPoint x="970" y="610" as="sourcePoint" />
            <mxPoint x="950" y="780" as="targetPoint" />
          </mxGeometry>
        </mxCell>
        <mxCell id="mrg4C_aMYKjTPVIA3Uac-52" value="" style="edgeStyle=orthogonalEdgeStyle;rounded=0;orthogonalLoop=1;jettySize=auto;html=1;" edge="1" parent="1" source="mrg4C_aMYKjTPVIA3Uac-47" target="mrg4C_aMYKjTPVIA3Uac-51">
          <mxGeometry relative="1" as="geometry" />
        </mxCell>
        <mxCell id="mrg4C_aMYKjTPVIA3Uac-47" value="&lt;font style=&quot;font-size: 16px;&quot;&gt;According to temporary profit&lt;/font&gt;" style="ellipse;whiteSpace=wrap;html=1;" vertex="1" parent="1">
          <mxGeometry x="890" y="740" width="120" height="80" as="geometry" />
        </mxCell>
        <mxCell id="mrg4C_aMYKjTPVIA3Uac-48" value="" style="shape=flexArrow;endArrow=classic;html=1;rounded=0;exitX=0;exitY=1;exitDx=0;exitDy=0;" edge="1" parent="1" source="mrg4C_aMYKjTPVIA3Uac-27" target="mrg4C_aMYKjTPVIA3Uac-49">
          <mxGeometry width="50" height="50" relative="1" as="geometry">
            <mxPoint x="970" y="610" as="sourcePoint" />
            <mxPoint x="1180" y="790" as="targetPoint" />
          </mxGeometry>
        </mxCell>
        <mxCell id="mrg4C_aMYKjTPVIA3Uac-49" value="&lt;font style=&quot;font-size: 16px;&quot;&gt;According to exact Profit&lt;/font&gt;" style="ellipse;whiteSpace=wrap;html=1;" vertex="1" parent="1">
          <mxGeometry x="1120" y="740" width="120" height="80" as="geometry" />
        </mxCell>
        <mxCell id="mrg4C_aMYKjTPVIA3Uac-54" value="" style="edgeStyle=orthogonalEdgeStyle;rounded=0;orthogonalLoop=1;jettySize=auto;html=1;" edge="1" parent="1" source="mrg4C_aMYKjTPVIA3Uac-51" target="mrg4C_aMYKjTPVIA3Uac-53">
          <mxGeometry relative="1" as="geometry" />
        </mxCell>
        <mxCell id="mrg4C_aMYKjTPVIA3Uac-51" value="Set Alarm At 50% loss" style="whiteSpace=wrap;html=1;" vertex="1" parent="1">
          <mxGeometry x="890" y="910" width="120" height="60" as="geometry" />
        </mxCell>
        <mxCell id="mrg4C_aMYKjTPVIA3Uac-53" value="&lt;font style=&quot;font-size: 15px;&quot;&gt;Close All Positions At 70% loss&lt;/font&gt;" style="whiteSpace=wrap;html=1;" vertex="1" parent="1">
          <mxGeometry x="890" y="1050" width="120" height="60" as="geometry" />
        </mxCell>
      </root>
    </mxGraphModel>
  </diagram>
</mxfile>
